<?xml version="1.0" encoding="UTF-8"?>
<svg width="512px" height="93px" viewBox="0 0 512 93" version="1.1" xmlns="http://www.w3.org/2000/svg" xmlns:xlink="http://www.w3.org/1999/xlink">
    <title>logo</title>
    <g id="页面-1" stroke="none" stroke-width="1" fill="none" fill-rule="evenodd">
        <g id="logo" transform="translate(0.000000, 0.000000)">
            <path d="M46.5239568,62 C59.0546597,62 69.8721573,70.0190132 74.9169268,81.6190155 C67.2305799,88.7202456 57.2939719,93 46.4430248,93 C35.6466783,93 25.7554925,88.7632077 18.0847106,81.727497 C23.1093978,70.0682921 33.9548106,62 46.5239568,62 Z M11.3227536,18.082515 C22.9513682,23.1018527 31,33.9387049 31,46.4981832 C31,59.0594601 22.9490629,69.8976174 11.3177577,74.9160075 C4.25492195,67.2405519 -4.54747351e-13,57.3269257 -4.54747351e-13,46.5026305 C-4.54747351e-13,35.784147 4.17214155,25.9586152 11.109443,18.315336 L11.3227536,18.082515 Z M82.7787048,20.6666667 L92.22038,41.5573239 C93.2598733,43.8573075 93.2598733,46.5593591 92.22038,48.8593427 L82.7787048,69.75 L82.5546285,69.75 L73.1129533,48.8593427 C72.0867868,46.5888461 72.0736309,43.9265248 73.0734854,41.6459814 L73.1129533,41.5573239 L82.5546285,20.6666667 L82.7787048,20.6666667 Z M47.7302416,0 C59.0743382,0 69.4626636,4.2800007 77.4995905,11.3803056 C72.2227724,22.981688 60.914106,31 47.8148626,31 C34.6750479,31 23.3369191,22.9319422 18.082021,11.2739244 C26.1027061,4.23690638 36.4434,0 47.7302416,0 Z" id="形状结合" fill="#007CFF"></path>
            <g id="CyberCommerce" transform="translate(115.000000, 22.000000)" fill="#FFFFFF" fill-rule="nonzero">
                <path d="M30.3666256,15.3761792 C27.9000645,12.4076258 24.8052283,10.9233491 21.0821171,10.9233491 C17.2193893,10.9233491 13.9849364,12.511989 11.3787586,15.6892689 C8.77258074,18.8665487 7.46949182,22.4960692 7.46949182,26.5778302 C7.46949182,30.5204403 8.76094602,34.0571934 11.3438544,37.1880896 C13.9267628,40.3189858 17.1495809,41.884434 21.0123088,41.884434 C24.6888811,41.884434 27.8069867,40.4001572 30.3666256,37.4316038 L30.3666256,46.1285377 C26.9227478,47.7983491 23.7348338,48.6332547 20.8028838,48.6332547 C14.9389836,48.6332547 10.0058613,46.4764151 6.00351679,42.1627358 C2.00117226,37.8490566 0,32.7004717 0,26.7169811 C0,20.5015723 2.00117226,15.1906447 6.00351679,10.7841981 C10.0058613,6.37775157 14.9855225,4.1745283 20.9425004,4.1745283 C24.0606061,4.1745283 27.2019811,4.98624214 30.3666256,6.60966981 L30.3666256,15.3761792 Z" id="路径"></path>
                <polygon id="路径" points="32.3910673 20.0377358 40.2096008 20.0377358 47.3998593 36.5271226 54.9391595 20.0377358 62.6180763 20.0377358 43.0717426 59 35.5324424 59 44.0490593 43.2759434"></polygon>
                <path d="M64.851943,0 L71.6233515,0 L71.6233515,22.5424528 C73.5779849,20.2696541 76.4866655,19.1332547 80.3493934,19.1332547 C83.9794268,19.1332547 86.9928199,20.5711478 89.3895727,23.446934 C91.7863255,26.3227201 92.984702,29.7087264 92.984702,33.6049528 C92.984702,37.8258648 91.7979603,41.351022 89.4244769,44.1804245 C87.0509935,47.009827 83.9794268,48.4245283 80.2097767,48.4245283 C76.1608933,48.4245283 73.3452904,47.2649371 71.7629682,44.9457547 L71.6233515,47.5200472 L64.851943,47.5200472 L64.851943,0 Z M86.0736768,33.7441038 C86.0736768,31.4249214 85.352324,29.3840409 83.9096184,27.6214623 C82.4669128,25.8588836 80.6286267,24.9775943 78.39476,24.9775943 C76.1608933,24.9775943 74.3458766,25.8472877 72.9497099,27.5866745 C71.5535432,29.3260613 70.8554598,31.3901336 70.8554598,33.7788915 C70.8554598,36.1676494 71.5884473,38.2317217 73.0544224,39.9711085 C74.5203974,41.7104953 76.3237794,42.5801887 78.4645683,42.5801887 C80.7915128,42.5801887 82.6414337,41.7336871 84.0143309,40.040684 C85.3872282,38.3476808 86.0736768,36.2488208 86.0736768,33.7441038 Z" id="形状"></path>
                <path d="M101.85036,34.4398585 C101.85036,37.0837264 102.432097,39.2637579 103.595569,40.9799528 C104.759041,42.6961478 106.364633,43.5542453 108.412344,43.5542453 C111.623527,43.5542453 113.671238,41.9772013 114.555477,38.8231132 L120.977844,39.8667453 C118.883594,45.571934 114.695094,48.4245283 108.412344,48.4245283 C104.223844,48.4245283 100.884679,47.0909984 98.3948479,44.4239387 C95.9050173,41.7568789 94.660102,38.2897013 94.660102,34.0224057 C94.660102,29.5231918 95.8584784,25.9168632 98.2552312,23.2034198 C100.651984,20.4899764 103.909706,19.1332547 108.028398,19.1332547 C112.14709,19.1332547 115.358273,20.4204009 117.661948,22.9946934 C119.965623,25.5689858 121.117461,29.0825472 121.117461,33.5353774 L121.117461,34.4398585 L101.85036,34.4398585 Z M114.834711,30.682783 C114.834711,28.7810535 114.24134,27.1112421 113.054598,25.6733491 C111.867857,24.235456 110.332073,23.5165094 108.447248,23.5165094 C106.562423,23.5165094 105.02664,24.2702437 103.839898,25.7777123 C102.653156,27.2851808 102.059785,28.9202044 102.059785,30.682783 L114.834711,30.682783 Z" id="形状"></path>
                <path d="M131.518903,22.8903302 C133.240842,20.3856132 135.940097,19.1332547 139.61667,19.1332547 C140.780142,19.1332547 141.850536,19.365173 142.827853,19.8290094 L141.990153,25.9516509 C140.966297,25.3022799 139.849364,24.9775943 138.639353,24.9775943 C133.892386,24.9775943 131.518903,28.3636006 131.518903,35.1356132 L131.518903,47.5200472 L124.747494,47.5200472 L124.747494,20.0377358 L131.518903,20.0377358 L131.518903,22.8903302 Z" id="路径"></path>
                <path d="M173.892562,15.3761792 C171.426001,12.4076258 168.331165,10.9233491 164.608053,10.9233491 C160.745326,10.9233491 157.510873,12.511989 154.904695,15.6892689 C152.298517,18.8665487 150.995428,22.4960692 150.995428,26.5778302 C150.995428,30.5204403 152.286882,34.0571934 154.869791,37.1880896 C157.452699,40.3189858 160.675517,41.884434 164.538245,41.884434 C168.214817,41.884434 171.332923,40.4001572 173.892562,37.4316038 L173.892562,46.1285377 C170.448684,47.7983491 167.26077,48.6332547 164.32882,48.6332547 C158.46492,48.6332547 153.531798,46.4764151 149.529453,42.1627358 C145.527109,37.8490566 143.525936,32.7004717 143.525936,26.7169811 C143.525936,20.5015723 145.527109,15.1906447 149.529453,10.7841981 C153.531798,6.37775157 158.511459,4.1745283 164.468437,4.1745283 C167.586542,4.1745283 170.727917,4.98624214 173.892562,6.60966981 L173.892562,15.3761792 Z" id="路径"></path>
                <path d="M206.213821,33.7441038 C206.213821,38.057783 204.887463,41.5829403 202.234746,44.3195755 C199.582029,47.0562107 196.103247,48.4245283 191.7984,48.4245283 C187.493553,48.4245283 183.991501,47.0562107 181.292245,44.3195755 C178.59299,41.5829403 177.243362,38.0693789 177.243362,33.7788915 C177.243362,29.4884041 178.56972,25.9748428 181.222437,23.2382075 C183.875154,20.5015723 187.365571,19.1332547 191.693687,19.1332547 C196.021804,19.1332547 199.523856,20.4899764 202.199842,23.2034198 C204.875828,25.9168632 206.213821,29.4304245 206.213821,33.7441038 Z M184.084579,33.8832547 C184.084579,36.4343553 184.805932,38.5216195 186.248637,40.1450472 C187.691343,41.7684748 189.552898,42.5801887 191.833304,42.5801887 C194.11371,42.5801887 195.940361,41.7104953 197.313258,39.9711085 C198.686156,38.2317217 199.372604,36.1676494 199.372604,33.7788915 C199.372604,31.3901336 198.674521,29.3260613 197.278354,27.5866745 C195.882187,25.8472877 194.055536,24.9775943 191.7984,24.9775943 C189.541264,24.9775943 187.691343,25.8125 186.248637,27.4823113 C184.805932,29.1521226 184.084579,31.2857704 184.084579,33.8832547 Z" id="形状"></path>
                <path d="M216.685071,22.4728774 C218.40701,20.2464623 221.059727,19.1332547 224.643221,19.1332547 C227.761327,19.1332547 230.227888,20.5711478 232.042905,23.446934 C233.811383,20.5711478 236.673524,19.1332547 240.62933,19.1332547 C246.446691,19.1332547 249.355372,22.8903302 249.355372,30.4044811 L249.355372,47.5200472 L242.653772,47.5200472 L242.653772,33.0483491 C242.653772,27.2040094 241.04818,24.2818396 237.836997,24.2818396 C234.625813,24.2818396 233.020222,27.528695 233.020222,34.0224057 L233.020222,47.5200472 L226.248813,47.5200472 L226.248813,33.6049528 C226.248813,27.389544 224.829377,24.2818396 221.990505,24.2818396 C218.453549,24.2818396 216.685071,27.528695 216.685071,34.0224057 L216.685071,47.5200472 L209.913663,47.5200472 L209.913663,20.0377358 L216.685071,20.0377358 L216.685071,22.4728774 Z" id="路径"></path>
                <path d="M261.781255,22.4728774 C263.503194,20.2464623 266.155911,19.1332547 269.739406,19.1332547 C272.857511,19.1332547 275.324072,20.5711478 277.139089,23.446934 C278.907567,20.5711478 281.769709,19.1332547 285.725514,19.1332547 C291.542876,19.1332547 294.451556,22.8903302 294.451556,30.4044811 L294.451556,47.5200472 L287.749956,47.5200472 L287.749956,33.0483491 C287.749956,27.2040094 286.144364,24.2818396 282.933181,24.2818396 C279.721998,24.2818396 278.116406,27.528695 278.116406,34.0224057 L278.116406,47.5200472 L271.344997,47.5200472 L271.344997,33.6049528 C271.344997,27.389544 269.925561,24.2818396 267.086689,24.2818396 C263.549733,24.2818396 261.781255,27.528695 261.781255,34.0224057 L261.781255,47.5200472 L255.009847,47.5200472 L255.009847,20.0377358 L261.781255,20.0377358 L261.781255,22.4728774 Z" id="路径"></path>
                <path d="M305.341656,34.4398585 C305.341656,37.0837264 305.923393,39.2637579 307.086865,40.9799528 C308.250337,42.6961478 309.855929,43.5542453 311.90364,43.5542453 C315.114823,43.5542453 317.162534,41.9772013 318.046773,38.8231132 L324.46914,39.8667453 C322.37489,45.571934 318.18639,48.4245283 311.90364,48.4245283 C307.71514,48.4245283 304.375974,47.0909984 301.886144,44.4239387 C299.396313,41.7568789 298.151398,38.2897013 298.151398,34.0224057 C298.151398,29.5231918 299.349774,25.9168632 301.746527,23.2034198 C304.14328,20.4899764 307.401002,19.1332547 311.519694,19.1332547 C315.638386,19.1332547 318.849569,20.4204009 321.153244,22.9946934 C323.456919,25.5689858 324.608757,29.0825472 324.608757,33.5353774 L324.608757,34.4398585 L305.341656,34.4398585 Z M318.326007,30.682783 C318.326007,28.7810535 317.732636,27.1112421 316.545894,25.6733491 C315.359152,24.235456 313.823369,23.5165094 311.938544,23.5165094 C310.053719,23.5165094 308.517936,24.2702437 307.331194,25.7777123 C306.144452,27.2851808 305.551081,28.9202044 305.551081,30.682783 L318.326007,30.682783 Z" id="形状"></path>
                <path d="M335.010199,22.8903302 C336.732138,20.3856132 339.431393,19.1332547 343.107966,19.1332547 C344.271438,19.1332547 345.341832,19.365173 346.319149,19.8290094 L345.481449,25.9516509 C344.457593,25.3022799 343.34066,24.9775943 342.130649,24.9775943 C337.383682,24.9775943 335.010199,28.3636006 335.010199,35.1356132 L335.010199,47.5200472 L328.23879,47.5200472 L328.23879,20.0377358 L335.010199,20.0377358 L335.010199,22.8903302 Z" id="路径"></path>
                <path d="M367.610691,27.2040094 C365.888752,25.4878145 363.957388,24.629717 361.816599,24.629717 C359.303499,24.629717 357.325596,25.5341981 355.882891,27.3431604 C354.440185,29.1521226 353.718832,31.3669418 353.718832,33.9876179 C353.718832,36.608294 354.533263,38.7535377 356.162124,40.4233491 C357.790985,42.0931604 359.768888,42.928066 362.095833,42.928066 C364.097005,42.928066 365.935291,42.0467767 367.610691,40.2841981 L367.610691,46.754717 C365.656058,47.8679245 363.398922,48.4245283 360.839283,48.4245283 C356.836938,48.4245283 353.509407,47.009827 350.856691,44.1804245 C348.203974,41.351022 346.877616,37.8954403 346.877616,33.8136792 C346.877616,29.7319182 348.238878,26.2647406 350.961403,23.4121462 C353.683928,20.5595519 357.092902,19.1332547 361.188324,19.1332547 C363.608347,19.1332547 365.749135,19.7130503 367.610691,20.8726415 L367.610691,27.2040094 Z" id="路径"></path>
                <path d="M377.7329,34.4398585 C377.7329,37.0837264 378.314636,39.2637579 379.478108,40.9799528 C380.64158,42.6961478 382.247172,43.5542453 384.294883,43.5542453 C387.506066,43.5542453 389.553778,41.9772013 390.438017,38.8231132 L396.860383,39.8667453 C394.766133,45.571934 390.577633,48.4245283 384.294883,48.4245283 C380.106383,48.4245283 376.767218,47.0909984 374.277387,44.4239387 C371.787556,41.7568789 370.542641,38.2897013 370.542641,34.0224057 C370.542641,29.5231918 371.741018,25.9168632 374.13777,23.2034198 C376.534523,20.4899764 379.792245,19.1332547 383.910937,19.1332547 C388.029629,19.1332547 391.240812,20.4204009 393.544487,22.9946934 C395.848162,25.5689858 397,29.0825472 397,33.5353774 L397,34.4398585 L377.7329,34.4398585 Z M390.71725,30.682783 C390.71725,28.7810535 390.123879,27.1112421 388.937137,25.6733491 C387.750396,24.235456 386.214612,23.5165094 384.329787,23.5165094 C382.444962,23.5165094 380.909179,24.2702437 379.722437,25.7777123 C378.535695,27.2851808 377.942325,28.9202044 377.942325,30.682783 L390.71725,30.682783 Z" id="形状"></path>
            </g>
        </g>
    </g>
</svg>